<?xml version="1.0" encoding="utf-8"?>
<!-- Generator: Adobe Illustrator 23.0.4, SVG Export Plug-In . SVG Version: 6.00 Build 0)  -->
<svg version="1.1" id="Layer_1" xmlns="http://www.w3.org/2000/svg" xmlns:xlink="http://www.w3.org/1999/xlink" x="0px" y="0px"
	 viewBox="0 0 18 18" style="enable-background:new 0 0 18 18;" xml:space="preserve">
<style type="text/css">
	.st0{display:none;}
	.st1{display:inline;fill:none;stroke:#B3DCE0;stroke-width:0.2;stroke-miterlimit:10;}
	.st2{fill:#FFFFFF;}
</style>
<g id="Layer_2_1_" class="st0">
	<line class="st1" x1="1.1" y1="0" x2="1.1" y2="18"/>
	<line class="st1" x1="2.1" y1="0" x2="2.1" y2="18"/>
	<line class="st1" x1="3.1" y1="0" x2="3.1" y2="18"/>
	<line class="st1" x1="4.1" y1="0" x2="4.1" y2="18"/>
	<line class="st1" x1="5.1" y1="0" x2="5.1" y2="18"/>
	<line class="st1" x1="6.1" y1="0" x2="6.1" y2="18"/>
	<line class="st1" x1="7" y1="0" x2="7" y2="18"/>
	<line class="st1" x1="8" y1="0" x2="8" y2="18"/>
	<line class="st1" x1="9" y1="0" x2="9" y2="18"/>
	<line class="st1" x1="10" y1="0" x2="10" y2="18"/>
	<line class="st1" x1="11" y1="0" x2="11" y2="18"/>
	<line class="st1" x1="12" y1="0" x2="12" y2="18"/>
	<line class="st1" x1="13" y1="0" x2="13" y2="18"/>
	<line class="st1" x1="14" y1="0" x2="14" y2="18"/>
	<line class="st1" x1="15" y1="0" x2="15" y2="18"/>
	<line class="st1" x1="16" y1="0" x2="16" y2="18"/>
	<line class="st1" x1="17" y1="0" x2="17" y2="18"/>
	<line class="st1" x1="0" y1="16" x2="18" y2="16"/>
	<line class="st1" x1="0" y1="17" x2="18" y2="17"/>
	<line class="st1" x1="0" y1="15" x2="18" y2="15"/>
	<line class="st1" x1="0" y1="14" x2="18" y2="14"/>
	<line class="st1" x1="0" y1="13" x2="18" y2="13"/>
	<line class="st1" x1="0" y1="12" x2="18" y2="12"/>
	<line class="st1" x1="0" y1="11" x2="18" y2="11"/>
	<line class="st1" x1="0" y1="10" x2="18" y2="10"/>
	<line class="st1" x1="0" y1="9" x2="18" y2="9"/>
	<line class="st1" x1="0" y1="8" x2="18" y2="8"/>
	<line class="st1" x1="0" y1="7" x2="18" y2="7"/>
	<line class="st1" x1="0" y1="6" x2="18" y2="6"/>
	<line class="st1" x1="0" y1="5" x2="18" y2="5"/>
	<line class="st1" x1="0" y1="4" x2="18" y2="4"/>
	<line class="st1" x1="0" y1="3" x2="18" y2="3"/>
	<line class="st1" x1="0" y1="2" x2="18" y2="2"/>
	<line class="st1" x1="0" y1="1" x2="18" y2="1"/>
</g>
<g id="Layer_3">
</g>
<g id="Layer_4">
</g>
<g id="Layer_5">
	<g>
		<path class="st2" d="M9,10.8H8.6V13H9c0.6,0,1-0.4,1-1.1C10.1,11.1,9.7,10.8,9,10.8z"/>
		<path class="st2" d="M10.1,1H3.8C3.3,1,3,1.3,3,1.8v14.4C3,16.7,3.3,17,3.8,17h10.4c0.5,0,0.8-0.3,0.8-0.8l0-10.2L10.1,1z
			 M5.8,12.6H5.1v1.2H4.2V9.9h1.6c0.7,0,1.3,0.5,1.3,1.3C7,12,6.5,12.6,5.8,12.6z M9.1,13.8H7.7V9.9h1.4c1.2,0,2,0.7,2,1.9
			C11,13.1,10.3,13.8,9.1,13.8z M14,10.8h-1.4v0.8h1.2v0.8h-1.2v1.4h-0.9V9.9H14L14,10.8L14,10.8z M10.2,6V3l2.9,3L10.2,6z"/>
		<path class="st2" d="M5.5,10.8H5.1v1h0.5c0.3,0,0.5-0.2,0.5-0.5S5.8,10.8,5.5,10.8z"/>
	</g>
</g>
<g id="Layer_6">
</g>
<g id="Layer_7">
</g>
<g id="Layer_8">
</g>
<g id="Layer_9">
</g>
<g id="Layer_10">
</g>
<g id="Layer_11">
</g>
<g id="Layer_12">
</g>
<g id="Layer_13">
</g>
<g id="Layer_14">
</g>
<g id="Layer_15">
</g>
<g id="Layer_16">
</g>
<g id="Layer_17">
</g>
<g id="Layer_18">
</g>
<g id="Layer_22">
</g>
<g id="Layer_19">
</g>
<g id="Layer_20">
</g>
<g id="Layer_21">
</g>
<g id="Layer_23">
</g>
<g id="Layer_24">
</g>
<g id="Layer_25">
</g>
<g id="Layer_26">
</g>
<g id="Layer_27">
</g>
<g id="Layer_28">
</g>
<g id="Layer_29">
</g>
<g id="Layer_30">
</g>
</svg>
