<?xml version="1.0" encoding="utf-8"?>
<!-- Generator: Adobe Illustrator 22.0.0, SVG Export Plug-In . SVG Version: 6.00 Build 0)  -->
<svg version="1.1" id="Layer_1" xmlns="http://www.w3.org/2000/svg" xmlns:xlink="http://www.w3.org/1999/xlink" x="0px" y="0px"
	 viewBox="0 0 17.998 18" style="enable-background:new 0 0 17.998 18;" xml:space="preserve">
<style type="text/css">
	.st0{display:none;}
	.st1{display:inline;fill:none;stroke:#B3DCE0;stroke-width:0.2;stroke-miterlimit:10;}
	.st2{fill:#4C6A8D;}
</style>
<g id="Layer_2_1_" class="st0">
	<line class="st1" x1="1.063" y1="0" x2="1.063" y2="17.996"/>
	<line class="st1" x1="2.06" y1="0" x2="2.06" y2="17.996"/>
	<line class="st1" x1="3.058" y1="0" x2="3.058" y2="17.996"/>
	<line class="st1" x1="4.055" y1="0" x2="4.055" y2="17.996"/>
	<line class="st1" x1="5.053" y1="0" x2="5.053" y2="17.996"/>
	<line class="st1" x1="6.05" y1="0" x2="6.05" y2="17.996"/>
	<line class="st1" x1="7.048" y1="0" x2="7.048" y2="17.996"/>
	<line class="st1" x1="8.045" y1="0" x2="8.045" y2="17.996"/>
	<line class="st1" x1="9.043" y1="0" x2="9.043" y2="17.996"/>
	<line class="st1" x1="10.04" y1="0" x2="10.04" y2="17.996"/>
	<line class="st1" x1="11.038" y1="0" x2="11.038" y2="17.996"/>
	<line class="st1" x1="12.036" y1="0" x2="12.036" y2="17.996"/>
	<line class="st1" x1="13.033" y1="0" x2="13.033" y2="17.996"/>
	<line class="st1" x1="14.031" y1="0" x2="14.031" y2="17.996"/>
	<line class="st1" x1="15.028" y1="0" x2="15.028" y2="17.996"/>
	<line class="st1" x1="16.026" y1="0" x2="16.026" y2="17.996"/>
	<line class="st1" x1="17.023" y1="0" x2="17.023" y2="17.996"/>
	<line class="st1" x1="0.021" y1="16.036" x2="18.021" y2="16.036"/>
	<line class="st1" x1="0.021" y1="17.037" x2="18.021" y2="17.037"/>
	<line class="st1" x1="0.021" y1="15.035" x2="18.021" y2="15.035"/>
	<line class="st1" x1="0.021" y1="14.035" x2="18.021" y2="14.035"/>
	<line class="st1" x1="0.021" y1="13.034" x2="18.021" y2="13.034"/>
	<line class="st1" x1="0.021" y1="12.033" x2="18.021" y2="12.033"/>
	<line class="st1" x1="0.021" y1="11.032" x2="18.021" y2="11.032"/>
	<line class="st1" x1="0.021" y1="10.032" x2="18.021" y2="10.032"/>
	<line class="st1" x1="0.021" y1="9.031" x2="18.021" y2="9.031"/>
	<line class="st1" x1="0.021" y1="8.03" x2="18.021" y2="8.03"/>
	<line class="st1" x1="0.021" y1="7.029" x2="18.021" y2="7.029"/>
	<line class="st1" x1="0.021" y1="6.029" x2="18.021" y2="6.029"/>
	<line class="st1" x1="0.021" y1="5.028" x2="18.021" y2="5.028"/>
	<line class="st1" x1="0.021" y1="4.027" x2="18.021" y2="4.027"/>
	<line class="st1" x1="0.021" y1="3.026" x2="18.021" y2="3.026"/>
	<line class="st1" x1="0.021" y1="2.026" x2="18.021" y2="2.026"/>
	<line class="st1" x1="0.021" y1="1.025" x2="18.021" y2="1.025"/>
</g>
<g id="Layer_3">
</g>
<g id="Layer_4">
</g>
<g id="Layer_5">
	<g>
		<path class="st2" d="M9.018,10.752H8.632v2.229h0.387c0.649,0,1.047-0.387,1.047-1.122C10.065,11.128,9.651,10.752,9.018,10.752z"
			/>
		<path class="st2" d="M10.055,1.031H3.842c-0.5,0-0.8,0.3-0.8,0.8v14.4c0,0.5,0.3,0.8,0.8,0.8h10.4c0.5,0,0.8-0.3,0.8-0.8
			l0.002-10.176L10.055,1.031z M5.796,12.6H5.142v1.188h-0.94v-3.84h1.595c0.747,0,1.252,0.548,1.252,1.321
			C7.048,12.041,6.543,12.6,5.796,12.6z M9.056,13.787H7.691v-3.84h1.364c1.209,0,1.982,0.704,1.982,1.913
			C11.038,13.067,10.265,13.787,9.056,13.787z M14.031,10.752h-1.413v0.806h1.172v0.805h-1.172v1.424h-0.939v-3.84h2.353
			L14.031,10.752L14.031,10.752z M10.242,6.029V3.026l2.924,3.026L10.242,6.029z"/>
		<path class="st2" d="M5.53,10.825H5.053v1.042h0.461c0.328,0,0.489-0.22,0.489-0.526S5.842,10.825,5.53,10.825z"/>
	</g>
</g>
<g id="Layer_6">
</g>
<g id="Layer_7">
</g>
<g id="Layer_8">
</g>
<g id="Layer_9">
</g>
<g id="Layer_10">
</g>
<g id="Layer_11">
</g>
<g id="Layer_12">
</g>
<g id="Layer_13">
</g>
<g id="Layer_14">
</g>
<g id="Layer_15">
</g>
<g id="Layer_16">
</g>
<g id="Layer_17">
</g>
<g id="Layer_18">
</g>
<g id="Layer_22">
</g>
<g id="Layer_19">
</g>
<g id="Layer_20">
</g>
<g id="Layer_21">
</g>
<g id="Layer_23">
</g>
<g id="Layer_24">
</g>
<g id="Layer_25">
</g>
<g id="Layer_26">
</g>
<g id="Layer_27">
</g>
<g id="Layer_28">
</g>
<g id="Layer_29">
</g>
<g id="Layer_30">
</g>
</svg>
